<svg width="29" height="35" viewBox="0 0 29 35" fill="none" xmlns="http://www.w3.org/2000/svg">
<path d="M21.4606 0.0175153C21.3862 -0.0656097 18.7066 0.0503279 16.3747 2.58127C14.0428 5.11002 14.4016 8.01064 14.4541 8.08502C14.5066 8.15939 17.7791 8.27533 19.8681 5.33314C21.9572 2.39095 21.535 0.102828 21.4606 0.0175153V0.0175153ZM28.71 25.6835C28.605 25.4735 23.6241 22.9841 24.0878 18.1978C24.5516 13.4094 27.7519 12.0969 27.8022 11.9547C27.8525 11.8125 26.4962 10.2266 25.0591 9.42377C24.0038 8.85776 22.836 8.53347 21.64 8.47439C21.4037 8.46783 20.5834 8.26658 18.8969 8.72814C17.7856 9.0322 15.2809 10.0166 14.5919 10.056C13.9006 10.0953 11.8444 8.91408 9.6328 8.60126C8.21749 8.32783 6.71687 8.88783 5.6428 9.31877C4.57093 9.74752 2.53218 10.9681 1.10593 14.2122C-0.320322 17.4541 0.425615 22.5903 0.959365 24.1872C1.49312 25.7819 2.32655 28.396 3.74405 30.3035C5.00405 32.456 6.6753 33.95 7.37312 34.4575C8.07093 34.965 10.0397 35.3019 11.4047 34.6041C12.5028 33.9303 14.4847 33.5431 15.2678 33.5716C16.0487 33.6 17.5887 33.9085 19.1659 34.7506C20.415 35.1816 21.5962 35.0022 22.7797 34.521C23.9631 34.0375 25.6759 32.2044 27.6753 28.4878C28.4344 26.7597 28.78 25.8256 28.71 25.6835V25.6835Z" fill="#FDEBC9"/>
</svg>
