<?xml version="1.0" encoding="UTF-8"?>
<svg id="Layer_1" data-name="Layer 1" xmlns="http://www.w3.org/2000/svg" viewBox="0 0 455.4 237.09">
  <defs>
    <style>
      .cls-1 {
        fill: #ff7bac;
      }
    </style>
  </defs>
  <ellipse class="cls-1" cx="213" cy="105.59" rx="213" ry="87.5"/>
  <g>
    <path d="M40.12,88.39L91.61,5.78l22.81,1.96L54.82,101.38l41.33,122.93-22.89-1.96L40.74,122.5l-4.1,6.43-7.68,89.62-17.09-1.47L30.44,.53l17.09,1.47-7.41,86.4Z"/>
    <path d="M99.06,222.46L155.5,44.69l-31.86-10.11,9.33-29.38,48.2,15.31L115.4,227.65l-16.35-5.19Z"/>
    <path d="M222.85,184.31h-48.66l-12.66,52.79h-18.48L199.29,6.09l54.26,231h-18.77l-11.93-52.79Zm-6.99-30.83l-16.86-73.9-17.67,73.9h34.53Z"/>
    <path d="M281.82,131.69l55.09,82.36-20.45,4.71-51.62-79.4-3.01,.69,19.98,86.69-16.71,3.85L216.29,18.8l19.58-4.51c14.63-3.37,26.42-.55,35.34,8.47,9.87,10.05,17.02,24.68,21.45,43.88,3.46,15,4.18,28.41,2.17,40.24-2.01,11.83-6.35,20.1-13.02,24.81Zm-26.4-19.48l5.31-1.22c15.83-3.65,21.08-17.04,15.75-40.18-5-21.67-15.19-30.73-30.59-27.19l-5.95,1.37,15.49,67.21Z"/>
    <path d="M402.47,155.56l-43.57,8.26-2.38,49.41-16.54,3.14L351.12,0l87.79,197.61-16.81,3.19-19.64-45.24Zm-11.5-26.41l-27.64-63.3-3.27,69.17,30.91-5.86Z"/>
  </g>
  <path d="M439.11,211.49c0-2.19,.8-4.08,2.4-5.68s3.52-2.4,5.74-2.4,4.14,.8,5.74,2.4c1.6,1.6,2.4,3.52,2.4,5.74s-.8,4.2-2.4,5.8c-1.56,1.56-3.48,2.34-5.74,2.34s-4.24-.78-5.8-2.34c-1.56-1.56-2.34-3.52-2.34-5.86Z"/>
</svg>