<?xml version="1.0" encoding="UTF-8"?>
<svg id="Layer_1" data-name="Layer 1" xmlns="http://www.w3.org/2000/svg" xmlns:xlink="http://www.w3.org/1999/xlink" viewBox="0 0 195.34 294.45">
  <defs>
    <style>
      .cls-1 {
        fill: url(#linear-gradient);
        stroke: #000;
        stroke-miterlimit: 10;
        stroke-width: 8px;
      }
    </style>
    <linearGradient id="linear-gradient" x1="4.01" y1="147.22" x2="191.33" y2="147.22" gradientUnits="userSpaceOnUse">
      <stop offset="0" stop-color="#ffa2f3"/>
      <stop offset=".22" stop-color="#ff98e2" stop-opacity=".76"/>
      <stop offset=".6" stop-color="#ff88c5" stop-opacity=".36"/>
      <stop offset=".87" stop-color="#ff7eb3" stop-opacity=".1"/>
      <stop offset="1" stop-color="#ff7bac" stop-opacity="0"/>
    </linearGradient>
  </defs>
  <path class="cls-1" d="M191.33,290.45h-59.68s-33.1-60.25-68.71,0H4.43V146.94L4.01,4H63.7s33.1,60.25,68.71,0h58.5V147.51l.42,142.94Z"/>
  <g>
    <path d="M50.35,117.75h1.21v13.37h-1.21c-.34-1.52-.95-2.86-1.83-4.02-3.36,3.79-7.64,5.68-12.86,5.68-5.52,0-10.02-1.74-13.52-5.23s-5.25-8.1-5.25-13.84c0-3.77,.81-7.32,2.42-10.65s3.86-5.8,6.75-7.41,6.06-2.42,9.51-2.42c2.85,0,5.44,.59,7.75,1.76s4.05,2.47,5.19,3.9c.81-1.59,1.29-3.25,1.46-4.95h1.24l.34,14.46h-1.21c-.84-5.14-2.57-8.71-5.16-10.72s-5.53-3.01-8.79-3.01c-4,0-7.17,1.62-9.53,4.87s-3.53,7.89-3.53,13.93c0,5.72,1.29,10.11,3.86,13.16s5.77,4.57,9.6,4.57c2.04,0,4.14-.5,6.28-1.49s3.83-2.68,5.08-5.05,1.98-4.67,2.21-6.88Z"/>
    <path d="M58.32,112.75c0-5.89,1.97-10.62,5.91-14.18s8.85-5.35,14.74-5.35,10.91,1.76,14.9,5.29,5.98,8.34,5.98,14.44-1.91,10.69-5.73,14.35-8.84,5.49-15.07,5.49-11.03-1.83-14.91-5.49-5.82-8.51-5.82-14.55Zm6.44,.2c0,6.13,1.22,10.74,3.67,13.82s6.12,4.61,11.02,4.61c4.3,0,7.69-1.54,10.19-4.61s3.74-7.66,3.74-13.76-1.23-10.47-3.69-13.63-6.02-4.74-10.69-4.74-8.12,1.54-10.57,4.63-3.67,7.65-3.67,13.69Z"/>
    <path d="M137.11,120.85l-.28,11.23h-32.42v-1.29h1.13c1.63,0,2.76-.21,3.39-.62s1.03-1.06,1.21-1.93,.27-2.9,.27-6.09v-18.71c0-3.04-.09-5-.27-5.88s-.55-1.49-1.13-1.83-1.82-.51-3.76-.51h-.84v-1.29h18.32v1.29h-1.69c-1.88,0-3.11,.15-3.69,.46s-.97,.89-1.17,1.73-.3,2.85-.3,6.02v19.98c0,2.76,.08,4.48,.23,5.18s.56,1.23,1.22,1.62,2.1,.58,4.29,.58h2.9c2.34,0,4.08-.21,5.22-.62s2.21-1.31,3.24-2.7,1.96-3.59,2.8-6.61h1.32Z"/>
    <path d="M138.94,94.23l6.27-.31c5.23-.26,8.76-.39,10.58-.39,5.67,0,10.09,.86,13.26,2.59s5.53,4.07,7.08,7.02c1.55,2.95,2.32,6.36,2.32,10.23,0,2.8-.42,5.35-1.27,7.67s-2,4.24-3.47,5.77-3.18,2.69-5.12,3.49-3.79,1.29-5.53,1.49-4.2,.3-7.37,.3h-16.91v-1.29h1.58c1.63,0,2.76-.21,3.39-.62s1.03-1.06,1.21-1.93,.27-2.9,.27-6.09v-18.4c0-3.04-.09-5-.27-5.9s-.55-1.5-1.13-1.83-1.82-.49-3.76-.49h-1.13v-1.29Zm11.76,.79v25.49c0,3.77,.07,6.2,.21,7.29s.56,1.85,1.27,2.29,2.19,.66,4.46,.66c3.32,0,6.05-.45,8.19-1.36s3.92-2.7,5.36-5.37,2.15-6.08,2.15-10.23c0-3.23-.42-6.11-1.25-8.64s-2.03-4.59-3.59-6.18-3.28-2.66-5.18-3.24-4.32-.86-7.29-.86c-1.43,0-2.87,.05-4.33,.14Z"/>
    <path d="M41.48,183.28v8.02c0,3,.07,4.97,.21,5.89,.14,.93,.52,1.62,1.14,2.07s1.78,.68,3.49,.68h1.27v1.29H30.11v-1.29h1.01c1.63,0,2.76-.21,3.39-.62s1.03-1.06,1.2-1.93c.17-.87,.25-2.9,.25-6.09v-18.71c0-3.04-.08-5-.25-5.88s-.54-1.49-1.13-1.83-1.84-.51-3.77-.51h-.7v-1.29l4.78-.17c3.83-.13,6.81-.2,8.95-.2,3.94,0,6.97,.31,9.1,.93s3.87,1.72,5.23,3.29,2.04,3.56,2.04,5.97c0,2.08-.46,3.92-1.39,5.52s-2.26,2.8-4,3.63-4.79,1.24-9.16,1.24h-4.19Zm0-1.41h2.73c2.19,0,3.97-.22,5.32-.66,1.35-.44,2.48-1.36,3.38-2.77s1.35-3.14,1.35-5.21c0-3.15-.77-5.46-2.32-6.94s-4.06-2.21-7.53-2.21c-1.28,0-2.25,.04-2.93,.11v17.67Z"/>
    <path d="M94.97,190l-.28,11.23H62.27v-1.29h1.13c1.63,0,2.76-.21,3.39-.62s1.03-1.06,1.21-1.93c.18-.87,.27-2.9,.27-6.09v-18.71c0-3.04-.09-5-.27-5.88s-.55-1.49-1.13-1.83-1.82-.51-3.76-.51h-.84v-1.29h18.32v1.29h-1.69c-1.88,0-3.1,.15-3.69,.46s-.97,.89-1.17,1.73-.3,2.85-.3,6.02v19.98c0,2.76,.08,4.48,.23,5.18s.56,1.23,1.22,1.62c.67,.38,2.1,.58,4.29,.58h2.9c2.34,0,4.08-.21,5.22-.62s2.21-1.31,3.24-2.7,1.96-3.59,2.8-6.61h1.32Z"/>
    <path d="M120.32,187.16h-14.49l-.98,2.42c-1.46,3.51-2.19,5.8-2.19,6.87,0,1.14,.39,2.01,1.17,2.6,.78,.59,1.78,.89,3,.89v1.29h-11.34v-1.29c1.69-.26,2.95-.86,3.77-1.79,.83-.93,1.82-2.88,2.98-5.87,.09-.28,.54-1.37,1.35-3.26l11.09-26.48h1.1l12.75,30.31,1.74,4c.39,.9,.92,1.61,1.59,2.13,.66,.51,1.66,.84,3,.97v1.29h-15v-1.29c1.84,0,3.08-.14,3.73-.41,.65-.27,.97-.81,.97-1.62,0-.41-.43-1.64-1.29-3.69l-2.93-7.06Zm-.48-1.27l-6.75-16.26-6.73,16.26h13.48Z"/>
    <path d="M149.78,184.55l7.51-12.63c1.24-2.06,1.86-3.53,1.86-4.39,0-.79-.33-1.51-.98-2.17s-1.83-.98-3.52-.98v-1.29h12.47v1.29c-1.73,.24-3.12,.89-4.18,1.93-1.06,1.04-2.41,2.93-4.07,5.67l-8.55,14.27v5.07c0,3.25,.1,5.31,.29,6.21,.2,.89,.62,1.52,1.27,1.88,.65,.37,1.92,.55,3.81,.55v1.29h-16.26v-1.29h.62c1.63,0,2.76-.21,3.39-.62,.63-.41,1.03-1.06,1.19-1.93,.17-.87,.25-2.9,.25-6.09v-4.7l-9.51-15.62c-1.93-3.15-3.22-5.03-3.86-5.64s-1.78-.93-3.43-.97v-1.29h15.48v1.29c-2.89,0-4.33,.66-4.33,1.97,0,.53,.48,1.58,1.44,3.15l9.12,15.05Z"/>
  </g>
</svg>