<svg width="35" height="32" viewBox="0 0 35 32" fill="none" xmlns="http://www.w3.org/2000/svg">
<path d="M35 3.8012C33.7129 4.42605 32.3122 4.87576 30.8695 5.0509C32.3674 4.04942 33.4891 2.46723 34.0242 0.601203C32.6186 1.54222 31.0788 2.20207 29.473 2.5515C28.8019 1.74405 27.9902 1.1008 27.0885 0.66183C26.1868 0.22286 25.2145 -0.00242264 24.2321 1.96469e-05C20.2572 1.96469e-05 17.0604 3.62605 17.0604 8.07575C17.0604 8.70061 17.1278 9.32546 17.2371 9.92664C11.2853 9.57635 5.97705 6.37635 2.44802 1.47694C1.805 2.71299 1.46803 4.12038 1.47218 5.55268C1.47218 8.35504 2.73825 10.826 4.66891 12.2793C3.53114 12.2289 2.42002 11.8769 1.42591 11.2521V11.3515C1.42591 15.2757 3.89076 18.5278 7.17582 19.2757C6.55901 19.4561 5.9245 19.5483 5.28723 19.5503C4.82033 19.5503 4.37868 19.4982 3.93282 19.4272C4.84136 22.6272 7.48708 24.9515 10.6375 25.0272C8.1727 27.2 5.08533 28.4781 1.73296 28.4781C1.13147 28.4781 0.576253 28.4544 0 28.3787C3.17991 30.6746 6.95289 32 11.0161 32C24.2068 32 31.4247 19.7018 31.4247 9.02723C31.4247 8.67694 31.4247 8.32664 31.4037 7.97635C32.8001 6.82605 34.0242 5.4012 35 3.8012Z" fill="#FDEBC9"/>
</svg>
